<svg width="100" height="50" xmlns="http://www.w3.org/2000/svg" viewBox="0 0 550 176.49">
    <defs>
        <style>
            .cls-1{fill:#010101}.cls-1,.cls-2,.cls-3{stroke-width:0}.cls-2{fill:none}.cls-3{fill:#000000}
        </style>
    </defs>
    <g id="Layer_1-2">
        <path class="cls-2" d="M520.3 93.33s.07-.01.1-.02c.05-.1.1-.19.14-.29-.08.1-.16.2-.24.31ZM148.28 90.89c.69-1.79 1.33-3.56 1.93-5.29.87-2.53 1.59-4.85 2.17-6.97-.72 1.16-1.43 2.36-2.15 3.63-2.34 4.11-4.57 8.53-6.67 13.16.39 0 .75.08 1.09.22 1-1.93 2.22-3.53 3.64-4.75ZM528.81 87.11s0-.02.01-.02c.04-.1.14-.37 0-.92-.15 0-.35.03-.63.08-.03 0-.07.02-.11.03.26.27.51.55.73.84ZM328.36 48.86c-2.75 2.27-5.73 4.01-8.87 5.17a21.757 21.757 0 0 1-10.32 1.21c-.24-.03-.49-.08-.73-.12-.21.08-.42.17-.63.25a18.72 18.72 0 0 1-8.95 1.05c-3.06-.38-6.02-1.75-8.88-4.13 2.09-1.19 4.13-2.55 6.13-4.05l-.57-.48 3.65-2.09c.11-.06.22-.13.33-.2 2-1.72 3.82-3.5 5.46-5.32 2.04-2.27 3.78-4.6 5.2-6.99 1.43-2.39 2.41-4.74 2.91-7.05.41-1.9.64-3.73.69-5.45.05-1.72-.18-3.28-.69-4.67a7.5 7.5 0 0 0-2.52-3.43c-.78-.6-1.79-1.04-2.99-1.32-.6.23-1.2.47-1.8.75-3.72 1.7-7.24 4.11-10.47 7.14a46.408 46.408 0 0 0-8.28 10.39c-2.17 3.71-3.51 7.55-3.99 11.43-.34 2.78 0 5.54.99 8.21 1.09 2.93 2.6 5.9 4.47 8.81 1.93 3.01 4.11 6.18 6.48 9.41 2.45 3.34 4.72 6.84 6.76 10.4a54.56 54.56 0 0 1 4.94 11.59 33.7 33.7 0 0 1 1.27 7.15c3.44-8.22 6.88-16.46 10.36-24.64 3.27-7.69 6.6-15.39 10.07-23.01ZM375.37 73.11c-.64.81-1.28 1.66-1.91 2.55-2.02 2.84-3.99 5.98-5.87 9.34-.17.3-.33.61-.5.92 1.94-2.01 3.67-4.09 5.15-6.26 1.56-2.29 2.6-4.47 3.13-6.55ZM71.11 44.59c1.91-3.6 3.84-7.18 5.8-10.77l-.24.18c-4.58 3.53-8.59 7.42-11.92 11.56-3.31 4.12-6.07 8.47-8.18 12.92-2.13 4.49-3.77 8.87-4.88 13.01-1.1 4.13-1.78 8.02-2.02 11.56-.08 1.25-.12 2.43-.1 3.53 3.56-7.12 7.17-14.24 10.78-21.33 3.53-6.91 7.12-13.82 10.76-20.67ZM410.45 100.95c2.28-4.4 4.14-8.55 5.56-12.44.34-.93.64-1.82.91-2.68-.68-.12-1.3-.3-1.86-.56a.914.914 0 0 1-.14-.07c-3.46 8.07-6.92 16.14-10.37 24.22-.53 1.46-.97 2.84-1.31 4.14.07-.11.13-.21.2-.31 2.39-3.8 4.72-7.9 7.01-12.3ZM459.56 107.58c2.27-4.31 4.12-8.38 5.54-12.21.39-1.05.73-2.06 1.03-3.03a7.27 7.27 0 0 1-2.02-.67c-.03-.02-.06-.03-.09-.05-3.43 7.89-6.86 15.78-10.28 23.67-.63 1.73-1.14 3.35-1.5 4.84l.35-.53c2.38-3.7 4.71-7.71 6.98-12.02ZM378.2 102.55c2.09-2.71 4.21-5.38 6.35-8.02.07-.15.14-.29.21-.44-.68.53-1.37 1.06-2.07 1.55-4.27 2.99-8.72 5.16-13.24 6.47-3.5 1.01-6.69 1.22-9.54.65-.11.04-.21.08-.32.11-1.43 4.22-2.21 7.8-2.32 10.67-.15 3.69.79 4.56.9 4.65.24.19.96.78 3.03.2 1.1-.31 2.34-.85 3.7-1.6 1.38-1.17 2.77-2.41 4.15-3.74 2.95-2.85 6.01-6.4 9.16-10.49ZM511.74 106.57s-.03.05-.05.08a137.098 137.098 0 0 0-7.91 16.76c1.04-2.4 2.13-4.8 3.3-7.2 1.66-3.41 3.21-6.62 4.66-9.65ZM136.04 115.82c-.2.76-.37 1.49-.53 2.19.27-.48.54-.97.81-1.47-.1-.23-.19-.48-.28-.72Z"/>
        <path class="cls-3" d="M313.09 15.99c.51 1.39.74 2.94.69 4.67-.05 1.72-.28 3.55-.69 5.45-.5 2.31-1.48 4.67-2.91 7.05-1.43 2.39-3.16 4.72-5.2 6.99-1.64 1.83-3.46 3.6-5.46 5.32 2.49-1.45 4.95-3.15 7.31-5.08 2.48-2.02 4.71-4.13 6.63-6.28 1.91-2.13 3.55-4.33 4.87-6.54 1.27-2.13 2.13-4.2 2.56-6.17.37-1.69.58-3.35.62-4.92.04-1.34-.13-2.54-.51-3.57a4.59 4.59 0 0 0-1.56-2.12c-.71-.55-1.92-.9-3.38-1-2.66-.18-5.51.32-8.49 1.45 1.21.27 2.22.72 2.99 1.32 1.17.9 2.01 2.05 2.52 3.43ZM298.86 56.43a18.706 18.706 0 0 0 9.58-1.3c-3.36-.56-6.61-2.12-9.67-4.67l-2.66-2.22c-2 1.51-4.04 2.86-6.13 4.05 2.86 2.38 5.82 3.76 8.88 4.13ZM241.14 131.56a22.78 22.78 0 0 1-5.79-8.93c-1.17-3.28-1.61-6.95-1.31-10.9.15-1.92.57-4.1 1.25-6.49.6-2.07 1.59-4.02 2.96-5.83-2.97 1.08-5.33 2.53-7.07 4.36-1.84 1.93-3.09 4.06-3.75 6.36-.66 2.3-1.03 4.29-1.15 5.9-.26 3.42.08 6.69 1.15 9.7 1.07 3.01 2.75 5.6 5.05 7.79 2.29 2.19 5.23 3.88 8.8 5.09 3.57 1.21 7.75 1.77 12.55 1.71 2.97-.04 5.95-.43 8.94-1.17-4.41-.08-8.36-.7-11.77-1.85-3.96-1.34-7.29-3.28-9.88-5.75ZM278.96 121.08c1.59-1.62 2.89-3.54 3.86-5.7 1.08-2.39 1.83-4.78 2.23-7.12.45-2.62.19-5.2-.76-7.67-1.04-2.68-2.5-5.41-4.35-8.1-1.95-2.83-4.12-5.74-6.45-8.65-2.48-3.08-4.8-6.47-6.9-10.06-2.15-3.67-3.89-7.68-5.17-11.93-1.33-4.4-1.73-9.39-1.18-14.83.65-6.5 2.73-12.85 6.19-18.9 3.23-5.65 7.53-10.85 12.79-15.48-2.97 1.75-5.8 3.73-8.21 5.81-5.12 4.42-9.44 9.49-12.71 15.21-3.27 5.72-5.2 11.64-5.82 17.74-.51 5.08-.15 9.65 1.07 13.69 1.22 4.05 2.86 7.81 4.9 11.3a80.6 80.6 0 0 0 6.66 9.71c2.4 2.99 4.59 5.93 6.58 8.83 1.99 2.9 3.55 5.8 4.67 8.7 1.12 2.9 1.47 6.03.92 9.22-.47 2.71-1.33 5.35-2.45 7.83a23.07 23.07 0 0 1-2.84 4.69c.46-.15.91-.31 1.34-.49 2.18-.92 4.08-2.19 5.63-3.78ZM120.32 136.81c-2.07-2.43-3.3-5.74-3.65-9.86-.33-3.79.05-8.2 1.12-13.11 1.04-4.79 2.63-9.81 4.71-14.91 2.08-5.09 4.6-10.18 7.49-15.12 2.92-5 6.24-9.6 9.86-13.67 1.64-1.85 3.35-3.56 5.09-5.12-.82.43-1.63.9-2.45 1.43-3.91 2.53-7.62 5.78-11.13 9.72-.75.84-1.47 1.7-2.19 2.58-1.86 4.77-3.72 9.55-5.58 14.31-3.48 8.89-6.31 16.07-8.9 22.58-2.04 5.13-3.96 9.98-5.81 14.7.01.15.01.3.03.44.3 3.51 1.29 6.25 2.97 8.21 1.67 1.97 4.23 2.73 7.69 2.31 1.8-.22 3.62-.73 5.44-1.5-1.87-.53-3.44-1.53-4.69-2.99ZM144.44 96.03c.07-.13.13-.26.2-.39-.33-.14-.69-.21-1.09-.22-.35.78-.7 1.56-1.04 2.35-2.38 5.47-4.29 10.58-5.67 15.19-.3 1-.56 1.95-.8 2.87.09.25.18.49.28.72-.27.5-.54.99-.81 1.47-.5 2.26-.78 4.23-.83 5.88-.01.31 0 .56 0 .77.64-.41 1.69-1.3 3.21-3.27 1.88-2.44 3.85-5.51 5.88-9.16-.85-2.55-1.21-5.63-1.08-9.17.09-2.49.68-4.86 1.74-7.04ZM192.77 102.84c2.2-3.08 4.61-6.47 7.35-10.37.14-.66.23-1.26.26-1.81.05-.96 0-1.77-.15-2.43-.15-.65-.28-1.07-.38-1.27-1.87 2.6-3.73 5.23-5.59 7.87-1.7 4.31-3.41 8.62-5.11 12.92 1.14-1.5 2.36-3.14 3.62-4.92ZM148.28 90.89s.01-.01.02-.01c1.67-1.43 3.42-2.25 5.18-2.43.57-.06 1.13-.04 1.66.04 1.1-2.72 2.09-5.37 2.97-7.92 1.18-3.46 2.11-6.56 2.75-9.21.41-1.72.69-3.19.82-4.39-.87.61-2 1.64-3.42 3.36-1.93 2.33-3.89 5.12-5.87 8.31-.58 2.12-1.31 4.44-2.17 6.97-.59 1.73-1.24 3.5-1.93 5.29ZM173.21 91.56c-.55 1.43-1.13 2.86-1.75 4.29 1.76-2.29 3.44-4.6 5-6.88.28-.4.54-.79.8-1.16 2.37-5.94 4.89-12.26 7.45-18.58 2.66-6.58 5.47-13.36 8.55-20.62-.67-.3-1.16-.69-1.52-1.05-1.25-1.28-1.68-2.99-1.16-4.69.38-1.28 1.25-2.43 2.57-3.42 1.23-.93 2.82-1.48 4.73-1.63.85-1.82 1.65-3.54 2.4-5.17.35-.77.7-1.52 1.03-2.25.58-1.27 1.13-2.48 1.67-3.6 0-.01.01-.02.02-.03-1.28.1-2.64.49-4.07 1.2-1.63.8-3.02 2.22-3.97 4.19-.84 1.72-1.71 3.71-2.68 5.79-.97 2.09-2.01 4.34-3.13 6.74l-1.53.1c-1.43.09-2.55.45-3.36 1.07-.82.62-1.32 1.26-1.53 1.93-.2.68-.05 1.27.46 1.79s1.32.74 2.45.67c.49-.03.73-.05 1.22-.08-2.99 7-5.92 14.03-8.79 21.06-.04.98-.11 1.98-.24 3.03-.64 5.18-2.18 11-4.6 17.28ZM165.05 129.73c-.86-1.99-.97-4.42-.32-7.21l.03-.11c.53-1.91 1.1-3.85 1.72-5.83-2.54 1.77-5.03 2.98-7.44 3.62-.77 2.4-1.48 4.76-2.12 7.07-.51 2.18-.46 3.97.15 5.39.61 1.42 1.55 2.42 2.82 3.02 1.27.6 2.72.7 4.35.3 1.47-.35 2.87-1.1 4.18-2.23-1.48-.92-2.62-2.27-3.37-4.01ZM11.29 130.91c1.29-2.94 2.94-5.8 4.91-8.48 1.56-2.13 3.42-4.17 5.55-6.1-2.64 1.55-4.97 3.12-6.93 4.73-2.76 2.26-5.07 4.65-6.92 7.19a41.717 41.717 0 0 0-4.59 7.93c-1.2 2.75-2.31 5.76-3.31 9.03 2.52-1.35 5.06-2.75 7.63-4.16l.24-.78a87.92 87.92 0 0 1 3.42-9.34ZM25.67 158.59c-1.29-2.21-1.7-5.06-1.2-8.5.45-3.14 1.89-6.94 4.38-11.62a529.9 529.9 0 0 0 2.98-5.71c-2.01 1.12-4 2.23-5.97 3.34-.48.27-.95.53-1.43.8-.14.27-.28.55-.42.82-1.26 2.44-2.34 4.51-3.24 6.22-2.31 4.33-3.67 7.89-4.07 10.66-.4 2.77-.13 4.97.83 6.6.95 1.63 2.43 2.76 4.45 3.42 2.01.65 4.37 1.01 7.09 1.08.46-.96.92-1.92 1.38-2.89-2.07-.93-3.67-2.34-4.78-4.22ZM110.59 64.76c2.93-6.76 5.87-13.52 8.82-20.27 2.92-6.69 5.64-12.86 8.3-18.86 1.52-3.44 2.98-6.68 4.36-9.72-1.37-.64-3.1-.92-5.19-.85-2.13 4.61-4.52 9.89-7.16 15.84a3475 3475 0 0 0-8.29 18.84c-2.95 6.75-5.89 13.51-8.82 20.27-2.13 4.9-4.22 9.83-6.29 14.76 2.06-.42 4.14-.83 6.28-1.22 2.51-6.04 5.14-12.21 7.99-18.79ZM47.54 101.3c1.08-2.15 2.16-4.31 3.24-6.46l-3.19.34c-.83.09-1.63.14-2.42.17-1.55 3.1-3.1 6.19-4.66 9.29.37-.18.74-.37 1.12-.54 1.95-.94 3.93-1.88 5.91-2.8ZM27.26 85.39c-1.23-3.35-1.45-7.29-.66-11.69.76-4.21 2.38-8.69 4.81-13.33 2.89-5.5 6.6-10.86 11.03-15.92 3.8-4.34 8.04-8.4 12.64-12.1-2.3 1.48-4.53 3.03-6.67 4.67-5.34 4.07-10.15 8.55-14.43 13.44-4.28 4.89-7.84 10.02-10.64 15.35-2.32 4.42-3.82 8.6-4.52 12.49-.7 3.9-.53 7.29.53 10.16 1.05 2.88 3.02 5.03 5.88 6.48 2.86 1.45 6.66 1.91 11.39 1.41-.16-.68-.29-1.4-.39-2.17-.57-.21-1.13-.44-1.66-.71-3.54-1.79-5.99-4.51-7.3-8.09ZM83.67 145.8c-1.6-2.16-2.38-4.95-2.32-8.29.06-3.11 1.09-6.95 3.06-11.39 1.62-3.67 3.4-7.79 5.29-12.27 1.47-3.48 3.07-7.27 4.8-11.33-2.27.75-4.53 1.56-6.77 2.4-2.21 5.19-4.22 9.91-6 14.15-2.12 5.04-3.91 9.16-5.31 12.32-1.83 4.12-2.75 7.57-2.81 10.26-.05 2.7.53 4.86 1.74 6.49s2.93 2.81 5.16 3.53c2.22.72 4.7 1.18 7.44 1.38.36-.97.74-2.01 1.16-3.12-2.26-.93-4.09-2.32-5.43-4.13ZM57.51 81.42c3.41-6.82 6.98-13.87 10.91-21.57 3.5-6.85 7.12-13.82 10.78-20.71 1.96-3.69 3.8-7.13 5.57-10.37a59.766 59.766 0 0 0-7.86 5.06c-1.95 3.58-3.89 7.17-5.8 10.77a1555 1555 0 0 0-10.76 20.67c-3.62 7.09-7.22 14.2-10.78 21.33.03 1.92.21 3.59.55 5.01l.74 3.09c2.22-4.42 4.43-8.84 6.64-13.26ZM528.07 86.28c-.85.19-2.22.85-4.15 2.84-1.1 1.13-2.23 2.45-3.38 3.91-.05.1-.1.19-.14.29 1.99-.27 3.64-.88 5.01-1.85 1.59-1.12 2.7-2.54 3.4-4.34a9.54 9.54 0 0 0-.73-.84ZM532.29 126.08c2.18-2.48 4.55-5.24 7.05-8.21 0-.69-.05-1.31-.17-1.85-.15-.69-.28-1.15-.38-1.38-2.43 2.77-4.83 5.57-7.22 8.4-1.13 2.47-2.23 4.96-3.28 7.47 1.23-1.33 2.57-2.81 3.99-4.43ZM505.24 148.24c-1.05-1.64-1.52-3.56-1.36-5.56 0-.1.02-.2.03-.3a50.136 50.136 0 0 1-4.09 2.73c-1.24.73-2.47 1.34-3.68 1.85v.04c-.11 1.39.2 2.65.91 3.75.7 1.1 1.64 1.93 2.8 2.5 1.16.57 2.49.83 4 .77 1.51-.06 2.97-.57 4.38-1.51.35-.23.69-.47 1.04-.7-.02 0-.03-.01-.05-.02a9.87 9.87 0 0 1-3.96-3.54ZM488.7 105.28a92.27 92.27 0 0 1 6.83-10.63c2.73-3.68 5.69-6.96 8.82-9.79-2.39 1.28-4.73 2.87-7.01 4.77-1.52 1.27-3 2.65-4.44 4.13-.08.29-.16.57-.25.86-1.07 3.52-2.39 7.1-3.96 10.66ZM515.12 110.86c1.71-3.51 3.25-6.71 4.68-9.68-1.46-.98-2.31-2.17-2.81-3.22-1.77 2.66-3.53 5.55-5.24 8.62-1.45 3.03-3 6.24-4.66 9.65-1.17 2.4-2.26 4.8-3.3 7.2-.51 1.3-.99 2.57-1.4 3.77-.51 1.46-.92 2.85-1.23 4.07 1.3-.85 2.74-2 4.29-3.41 1.48-1.35 2.82-2.67 3.97-3.94 1.69-4.34 3.61-8.73 5.72-13.06ZM481.28 143.97c-1.58-2.18-2.33-4.85-2.22-7.95.14-4.18.92-8.68 2.32-13.38.91-3.08 2.05-6.19 3.38-9.29-1.42 2.65-2.93 5.27-4.55 7.81-2.47 3.89-5.07 7.39-7.74 10.43-.68 3.06-1.06 5.94-1.15 8.61-.08 2.4.46 4.46 1.67 6.13s3.03 2.71 5.45 3.13c1.21.21 2.62.05 4.24-.48 1.09-.36 2.22-.84 3.36-1.42-1.97-.76-3.57-1.95-4.75-3.59ZM411.9 170.42c-.85-2.28-.6-5.14.77-8.74.91-2.4 2.35-6.16 4.38-11.02 1.99-4.78 4.28-10.15 6.79-15.98 2.5-5.79 5.24-12.02 8.16-18.52 2.86-6.37 5.73-12.67 8.53-18.71 2.83-6.11 5.47-11.68 7.85-16.56 2.02-4.15 3.79-7.65 5.26-10.46-1.09-.05-2.21.09-3.35.44-1.57.48-2.86 1.61-3.87 3.39-.14.25-.28.53-.42.79-.24 3.6-1.04 7.68-2.37 12.14-1.35 4.5-3.12 9.09-5.25 13.66-2.11 4.53-4.55 9.02-7.24 13.35-2.71 4.36-5.57 8.26-8.51 11.6-.37.42-.75.84-1.12 1.24-1.97 4.43-3.85 8.73-5.64 12.88-2.54 5.88-4.8 11.2-6.78 15.95-1.98 4.74-3.4 8.44-4.34 10.93-1.06 2.79-1.37 5.05-.76 6.69.61 1.64 1.82 2.66 3.5 2.9 1.28.18 2.54.11 3.66-.12 1.12-.23 2.23-.83 3.35-1.82.11-.1.23-.21.34-.32-1.31-.84-2.33-2.1-2.93-3.71ZM444.66 137.16c-.06-.11-.12-.21-.17-.32-.99 2.28-1.97 4.56-2.96 6.84.12.03.23.06.35.08 2.56.46 5.27-.14 8.12-1.79-2.24-.89-4.07-2.51-5.34-4.81ZM471.81 85.95c.06.3.2.76.79 1.32l1.11 1.03c.91-2.73 1.46-5.11 1.64-7.08.05-.52.04-.9.02-1.17-.25.18-.54.38-.9.61l-.09.06c-.48.29-.94.71-1.37 1.27-.45.59-.81 1.29-1.06 2.08-.21.65-.25 1.27-.14 1.89ZM467.64 102.13c1.84-3.5 3.41-6.86 4.67-10.02l-1.27.19c-1.92.29-3.55.3-4.91.04-.3.97-.64 1.97-1.03 3.03-1.42 3.83-3.26 7.9-5.54 12.21-2.28 4.31-4.6 8.32-6.98 12.02l-.35.53c-.01.05-.03.11-.04.16-.35 1.44-.53 2.66-.53 3.64 0 .42.03.75.08.99.47-.3 1.29-.94 2.51-2.27 2.05-2.24 4.25-5.17 6.53-8.72 2.33-3.62 4.63-7.59 6.86-11.8ZM362.61 166.05c-.85-2.25-.6-5.12.76-8.78.9-2.42 2.34-6.22 4.39-11.19 1.95-4.74 4.18-10.06 6.81-16.25 1.28-3.02 2.6-6.09 3.97-9.24-2.01 1.77-4.03 3.4-6.04 4.87-.83.61-1.69 1.21-2.55 1.79-1.13 2.6-2.25 5.2-3.36 7.81-2.54 5.99-4.81 11.4-6.8 16.22-1.99 4.82-3.41 8.58-4.35 11.1-1.06 2.84-1.38 5.1-.76 6.72.61 1.61 1.83 2.59 3.51 2.76 1.28.13 2.55 0 3.67-.26 1.12-.27 2.24-.92 3.36-1.95.04-.03.07-.07.11-.11-1.21-.8-2.15-1.98-2.72-3.48ZM422.84 77.46c-.21.67-.26 1.29-.14 1.9.05.28.19.71.75 1.21l1.13 1.01c.94-2.84 1.51-5.3 1.7-7.31.04-.43.04-.76.03-1.01-.24.18-.53.39-.88.62l-.08.05c-.5.32-.98.78-1.42 1.37-.46.62-.83 1.35-1.08 2.16ZM341.16 126.98c-2.11-2.76-3.25-6.6-3.5-11.75-.03-.57-.04-1.14-.04-1.72l-.95 1.1c-2.17 2.47-4.34 4.81-6.47 6.95l-.06.06c.41 3.27 1.29 5.84 2.69 7.67 1.73 2.27 3.75 3.77 6.04 4.51s4.64.92 7.03.57c1.93-.29 3.55-.73 4.85-1.32-.71-.14-1.42-.32-2.11-.54-2.86-.92-5.38-2.78-7.47-5.52ZM334.37 101.09c2.23-2.85 4.72-6.08 7.4-9.58.9-1.18 1.81-2.36 2.71-3.53.19-.4.38-.8.58-1.2 2.37-4.8 5.25-9.41 8.56-13.71 2.47-3.21 5.1-6.08 7.86-8.58a40.2 40.2 0 0 0-5.89 3.86c-3.67 2.89-7.11 6.42-10.32 10.58a79.13 79.13 0 0 0-8.26 13.22c-.24.48-.46.96-.69 1.44-.65.84-1.3 1.69-1.95 2.53-1.4 3.38-2.8 6.76-4.19 10.12 1.31-1.54 2.7-3.27 4.18-5.16ZM418.52 95.52c1.83-3.52 3.39-6.91 4.65-10.1l-1.13.21c-2.02.38-3.7.44-5.12.2-.27.86-.58 1.75-.91 2.68-1.42 3.89-3.27 8.03-5.56 12.44-2.29 4.4-4.62 8.51-7.01 12.3-.07.11-.13.21-.2.31-.09.32-.17.63-.24.94-.35 1.46-.53 2.69-.53 3.67 0 .34.02.62.05.84.49-.34 1.32-1.02 2.53-2.39 2.06-2.33 4.28-5.36 6.57-9.01 2.34-3.72 4.66-7.79 6.89-12.09ZM306.51 124.89c-.85-2.06-.95-4.48-.29-7.2l.03-.12c1.13-3.97 2.49-8.13 4.05-12.36 1.55-4.23 3.38-8.76 5.42-13.47l.77-1.85c3.19-7.63 6.49-15.52 9.78-23.24 2.35-5.53 5.37-12.57 8.59-19.73a5.251 5.251 0 0 1-2.23-2.06 47.904 47.904 0 0 1-4.07 3.87c-.06.05-.12.1-.18.14-3.47 7.62-6.8 15.32-10.07 23.01-3.48 8.18-6.92 16.42-10.36 24.64.14 2 .12 4.03-.09 6.08-.53 5.24-2.21 10.18-5.02 14.71a45.9 45.9 0 0 1-4.64 6.24c-.26 1.65-.14 3.1.36 4.32.61 1.49 1.56 2.6 2.83 3.34 1.27.74 2.73 1.01 4.36.8 1.63-.2 3.16-.89 4.59-2.06.11-.09.21-.17.31-.26-.02-.01-.05-.02-.07-.04-1.84-1.07-3.21-2.67-4.07-4.75ZM375.37 73.11c-.53 2.08-1.57 4.26-3.13 6.55-1.48 2.17-3.2 4.25-5.15 6.26-.33.61-.66 1.21-.98 1.82.14-.09.27-.18.41-.28 2.77-1.88 5.39-4 7.79-6.31 2.39-2.29 4.47-4.72 6.17-7.22 1.58-2.32 2.56-4.5 2.89-6.47.09-.56.19-1.19.29-1.85-1.3.5-2.74 1.51-4.3 3.03-1.32 1.28-2.66 2.78-4 4.47Z"/>
        <path class="cls-1" d="M359.64 102.69c-.02.05-.03.11-.05.16.11-.04.21-.08.32-.11-.09-.02-.18-.03-.26-.05Z"/>
        <path class="cls-3" d="M399.55 70.63c-.56 4.87-2.49 9.6-5.73 14.04a47.914 47.914 0 0 1-9.07 9.41c-.07.15-.14.29-.21.44-2.14 2.65-4.26 5.32-6.35 8.02-3.16 4.08-6.21 7.64-9.16 10.49a82.385 82.385 0 0 1-4.15 3.74c1.11-.61 2.3-1.37 3.57-2.27 3.2-2.27 6.3-4.85 9.21-7.66 2.7-2.61 5.6-5.93 8.88-10.17 1.83-2.37 3.79-4.85 6.16-7.79 2.31-5.02 4.49-9.67 6.49-13.83 2.11-4.39 3.94-8.09 5.46-11.02-1.14-.02-2.3.17-3.5.58-.61.21-1.17.51-1.7.91.09.55.16 1.1.19 1.65.06 1.32.03 2.48-.1 3.45ZM395.48 131.49l-.15-.27c-.94 2.2-1.87 4.39-2.81 6.59.06 0 .12.03.18.03 2.44.34 5.03-.29 7.74-1.87-2.06-.85-3.76-2.36-4.96-4.48Z"/>
        <path class="cls-1" d="M354.06 48.78c.2-.15.37-.29.52-.44-.11 0-.22-.01-.33-.02-.06.15-.13.31-.19.46Z"/>
        <path class="cls-3" d="M338.9 36.5c.22 0 .44-.01.67 0 .8-1.64 1.57-3.19 2.29-4.66.35-.72.69-1.43 1.02-2.11.42-.87.82-1.69 1.21-2.49-.39 0-.78.04-1.19.1a30.7 30.7 0 0 1-1.72 4.79 43.69 43.69 0 0 1-2.29 4.38ZM96.03 14.69c3.74-.96 6.3-.93 7.67.09s1.86 2.34 1.9 3.53c.04 1.25.1 2.88-.3 4.46s-.91 3.07-1.52 4.48a1732.6 1732.6 0 0 1-6.76 14.31c-2.48 5.19-5.11 10.67-7.89 16.43-2.78 5.76-5.64 11.72-8.57 17.88l-8.79 18.51c5.15-1.79 10.38-3.34 15.69-4.64 5.31-1.29 11.05-2.49 17.23-3.59 2.8-6.76 5.68-13.51 8.59-20.22 2.93-6.75 5.87-13.52 8.82-20.27 2.75-6.29 5.51-12.57 8.29-18.84 2.64-5.95 5.02-11.23 7.16-15.84 2.54-.09 4.55.34 6.02 1.29 1.47.95 2.49 2.19 3.05 3.7.56 1.51.76 3.16.61 4.95a18.36 18.36 0 0 1-1.14 5.07c-2.38 6.61-4.83 13.2-7.31 19.76-2.85 7.55-5.76 15.11-8.68 22.64-3.05 7.87-6.13 15.75-9.21 23.61-2.95 7.53-5.91 15.06-8.9 22.57-2.6 6.54-5.19 13.1-7.75 19.65-2.33 5.96-4.2 10.88-5.62 14.74-2.73-.2-5.21-.66-7.44-1.38-2.23-.72-3.94-1.89-5.16-3.53-1.21-1.63-1.8-3.8-1.74-6.49.05-2.69.98-6.14 2.81-10.26 1.4-3.16 3.19-7.27 5.31-12.32 2.13-5.04 4.55-10.76 7.29-17.15-6.28 1.84-12.45 4.02-18.51 6.53-6.06 2.51-12.07 5.26-18.02 8.25-4.52 9.52-9.05 19.03-13.61 28.53-3.27 6.82-6.55 13.64-9.81 20.47-2.72-.07-5.08-.43-7.09-1.08-2.01-.65-3.49-1.79-4.45-3.42-.95-1.63-1.23-3.83-.83-6.6.4-2.77 1.76-6.33 4.07-10.66.9-1.71 1.98-3.78 3.24-6.22 1.26-2.43 2.59-5.11 4-8.03-4.83 2.69-9.58 5.34-14.24 7.95-4.67 2.61-9.26 5.13-13.77 7.56 1-3.27 2.1-6.27 3.31-9.03 1.2-2.75 2.73-5.39 4.59-7.93 1.86-2.53 4.16-4.93 6.92-7.19 2.76-2.26 6.24-4.45 10.32-6.62 2.41-1.27 4.78-2.5 7.09-3.62 2.31-1.11 4.58-2.18 6.79-3.21 3.48-6.93 6.96-13.87 10.43-20.8 3.6-7.2 7.24-14.39 10.9-21.55 3.53-6.91 7.12-13.82 10.76-20.67 3.22-6.07 6.5-12.14 9.86-18.15-6.37 2.51-11.96 5.63-16.75 9.32-4.8 3.7-8.94 7.72-12.41 12.05-3.48 4.33-6.33 8.83-8.54 13.5-2.22 4.67-3.9 9.18-5.06 13.51-1.16 4.33-1.86 8.37-2.11 12.12-.25 3.75-.08 6.89.53 9.41-4.73.5-8.53.04-11.39-1.41-2.86-1.45-4.82-3.61-5.88-6.48-1.05-2.88-1.23-6.26-.53-10.16.7-3.9 2.21-8.08 4.52-12.49 2.8-5.33 6.36-10.46 10.64-15.35 4.28-4.89 9.08-9.37 14.43-13.44 5.34-4.06 11.17-7.65 17.33-10.79 6.09-3.1 12.99-5.75 19.64-7.46ZM130.24 137.22c-3.45.42-6.01-.34-7.69-2.31-1.67-1.96-2.66-4.7-2.97-8.21-.3-3.51.05-7.59 1.07-12.24 1.01-4.64 2.53-9.46 4.56-14.43 2.03-4.97 4.46-9.89 7.31-14.75 2.84-4.85 6.01-9.26 9.52-13.21 3.5-3.94 7.21-7.19 11.13-9.72 3.91-2.53 7.9-3.99 11.97-4.37 4.17-.39 7 .94 8.47 3.95 1.48 3.02 1.91 7.01 1.3 11.98-.61 4.97-2.09 10.5-4.43 16.59s-5.24 12.04-8.7 17.85c1.63-.26 3.46-1.37 5.49-3.33 2.03-1.96 4.04-4.22 6.03-6.78 1.98-2.55 3.84-5.1 5.57-7.62 1.73-2.52 3.15-4.54 4.28-6.05 0 .1.08.45.23 1.05.15.6.2 1.41.15 2.42-.05 1.02-.28 2.23-.69 3.63-.41 1.4-1.23 2.92-2.29 4.52-1.24 1.86-2.44 3.7-3.66 5.32a90.02 90.02 0 0 1-5.42 6.71c-1.78 1.98-3.38 3.5-4.81 4.54-3.97 3.21-7.68 4.89-11.14 5.04-3.87 5.26-7.98 9.68-12.35 13.26-4.37 3.58-8.68 5.63-12.95 6.16Zm4.26-9.34c1.62-.28 3.53-1.86 5.71-4.7 2.18-2.83 4.44-6.41 6.78-10.72-1.02-2.32-1.51-5.46-1.37-9.28.08-2.12.58-4.1 1.45-5.86.86-1.77 1.91-3.17 3.12-4.21 1.22-1.04 2.41-1.62 3.58-1.74 1.17-.12 2.11.29 2.82 1.23 1.63-3.82 3.05-7.51 4.27-11.07 1.22-3.57 2.16-6.72 2.82-9.48.66-2.75.99-4.94.99-6.56s-.46-2.39-1.37-2.3c-2.14.2-4.58 1.96-7.32 5.28-2.74 3.32-5.52 7.44-8.31 12.36-2.8 4.92-5.41 10.18-7.85 15.78-2.44 5.6-4.37 10.78-5.79 15.51s-2.18 8.63-2.28 11.69c-.1 3.05.82 4.42 2.74 4.08Z"/>
        <path class="cls-3" d="M213.11 39.68c3.36-.18 5.05-.27 8.41-.43 1.22-.16 2.07 0 2.52.49.46.49.59 1.07.38 1.73-.2.67-.74 1.33-1.61 1.98-.87.65-1.96 1.06-3.29 1.22-3.49.17-5.23.26-8.72.46-8.74 21.97-17.45 43.96-26.13 65.96-1.22 3.34-1.81 5.47-1.76 6.38.05.91.59.94 1.6.1 1.02-.84 2.47-2.42 4.35-4.74 1.88-2.32 3.97-5.08 6.26-8.28 2.29-3.2 4.76-6.69 7.41-10.46 2.65-3.77 5.3-7.5 7.95-11.2.1.2.23.62.38 1.27s.2 1.46.15 2.43c-.05.97-.28 2.12-.69 3.46-.41 1.34-1.17 2.76-2.29 4.24-3.16 4.35-5.94 8.15-8.33 11.4-2.39 3.25-4.66 6.22-6.8 8.91-2.14 2.69-4.25 5.2-6.34 7.54s-4.46 4.73-7.1 7.18c-1.43 1.33-2.95 2.2-4.58 2.59-1.63.39-3.08.29-4.35-.3-1.27-.6-2.21-1.6-2.82-3.02-.61-1.41-.66-3.21-.15-5.39 1.12-4.06 2.44-8.26 3.97-12.61 1.53-4.34 3.31-8.99 5.34-13.93 3.5-8.78 7-17.58 10.54-26.33 3.28-8.09 6.65-16.18 10.08-24.23-.49.03-.73.05-1.22.08-1.12.08-1.94-.15-2.45-.67-.51-.52-.66-1.12-.46-1.79.2-.67.71-1.32 1.53-1.93.81-.61 1.93-.97 3.36-1.07l1.53-.1 3.13-6.74c.97-2.09 1.84-4.07 2.68-5.79.96-1.97 2.34-3.39 3.97-4.19 1.63-.8 3.16-1.22 4.59-1.24 1.43-.03 2.63.27 3.59.88.97.61 1.3 1.28.99 2-2.26 5.65-3.39 8.48-5.66 14.14ZM300.64 48.21c2.76-1.58 5.43-3.43 8.04-5.55 2.6-2.12 4.92-4.32 6.96-6.59 2.04-2.27 3.78-4.6 5.2-6.99 1.43-2.39 2.41-4.74 2.91-7.05.41-1.9.64-3.73.69-5.45.05-1.72-.18-3.28-.69-4.67a7.5 7.5 0 0 0-2.52-3.43c-1.17-.9-2.85-1.46-4.97-1.6-3.73-.25-7.68.61-11.71 2.45-4.03 1.85-7.78 4.41-11.25 7.67a48.874 48.874 0 0 0-8.8 11.05c-2.4 4.1-3.84 8.3-4.36 12.55-.4 3.24-.02 6.44 1.15 9.59 1.17 3.14 2.76 6.27 4.75 9.37 1.99 3.1 4.19 6.29 6.58 9.56 2.4 3.27 4.59 6.65 6.58 10.13 1.99 3.48 3.55 7.13 4.67 10.96 1.12 3.82 1.5 7.89 1.07 12.12-.49 4.84-2.04 9.34-4.59 13.46a42.252 42.252 0 0 1-9.41 10.69c-3.73 3.01-7.91 5.38-12.55 7.11-4.64 1.73-9.26 2.63-13.85 2.69-4.8.06-8.98-.5-12.55-1.71-3.57-1.21-6.51-2.91-8.8-5.09-2.3-2.19-3.98-4.79-5.05-7.79-1.07-3.01-1.41-6.28-1.15-9.7.12-1.6.48-3.59 1.15-5.9.66-2.3 1.91-4.43 3.75-6.36 1.84-1.93 4.36-3.45 7.58-4.55 3.21-1.09 7.37-1.29 12.47-.55-3.57 3-6.2 6.52-7.88 10.57-1.68 4.04-2.4 7.87-2.14 11.46.25 3.59 1.53 6.61 3.83 9.05 2.3 2.44 5.69 3.62 10.18 3.57 3.16-.04 6.02-.59 8.57-1.67 2.55-1.08 4.75-2.55 6.58-4.43 1.84-1.88 3.32-4.06 4.44-6.54 1.12-2.48 1.98-5.12 2.45-7.83.55-3.19.2-6.32-.92-9.22-1.12-2.9-2.68-5.8-4.67-8.7-1.99-2.9-4.19-5.84-6.58-8.83-2.4-2.99-4.62-6.22-6.66-9.71-2.04-3.49-3.67-7.25-4.9-11.3-1.22-4.04-1.58-8.61-1.07-13.69.61-6.1 2.55-12.02 5.82-17.74 3.27-5.72 7.59-10.79 12.71-15.21 4.98-4.3 11.78-8.17 17.83-10.52 6.23-2.41 14.3-3.95 21.04-3.84 7.57.13 13.11 1.99 16.37 5.74 3.26 3.75 4.49 9.51 3.82 17.15-.22 2.51-.94 5.2-2.22 8.03-1.28 2.83-2.93 5.6-4.97 8.3-2.04 2.7-4.34 5.12-6.88 7.25-2.55 2.14-5.28 3.74-8.19 4.82a18.72 18.72 0 0 1-8.95 1.05c-3.06-.38-6.02-1.75-8.88-4.13ZM354.65 40.08c3.36.2 5.04.31 8.41.54 1.22-.02 2.06.24 2.52.78.46.54.59 1.13.38 1.78-.2.65-.74 1.24-1.6 1.79-.87.55-1.96.83-3.29.85-3.48-.23-5.23-.34-8.71-.54-8.74 20.98-17.46 41.96-26.15 62.96-1.22 3.2-1.81 5.26-1.76 6.17.05.91.59 1.01 1.61.29s2.47-2.14 4.36-4.24c1.89-2.1 3.98-4.63 6.27-7.57 2.29-2.94 4.77-6.14 7.42-9.61 2.65-3.46 5.3-6.89 7.95-10.29.1.21.23.65.38 1.32s.2 1.48.15 2.44c-.05.96-.28 2.09-.69 3.38-.41 1.3-1.17 2.62-2.29 3.98-3.16 3.98-5.94 7.46-8.33 10.44-2.4 2.98-4.67 5.69-6.81 8.13-2.14 2.44-4.26 4.71-6.35 6.81-2.09 2.1-4.46 4.22-7.12 6.36-1.43 1.17-2.96 1.86-4.59 2.06-1.63.2-3.09-.06-4.36-.8-1.28-.74-2.22-1.86-2.83-3.34-.61-1.48-.66-3.29-.15-5.41 1.12-3.93 2.45-7.98 3.98-12.15 1.53-4.17 3.31-8.61 5.36-13.31 3.5-8.38 7.01-16.78 10.56-25.12 3.28-7.71 6.61-15.43 10.1-23.07-.49-.02-.73-.03-1.22-.06-1.12-.05-1.94-.37-2.45-.95-.51-.58-.66-1.19-.46-1.85.2-.65.71-1.24 1.53-1.76.82-.52 1.94-.75 3.37-.68.61.03.92.04 1.53.07 1.12-2.28 2.17-4.4 3.14-6.38.97-1.98 1.84-3.86 2.68-5.49.95-1.85 2.34-3.12 3.98-3.73 1.63-.62 3.16-.86 4.59-.72 1.42.14 2.62.57 3.59 1.29.97.72 1.3 1.43.99 2.12-2.26 5.39-3.39 8.09-5.66 13.49Z"/>
        <path class="cls-3" d="M362.29 128.52c-1.43.82-3.34 1.4-5.73 1.76-2.4.36-4.74.17-7.03-.57s-4.31-2.24-6.04-4.51c-1.73-2.27-2.69-5.65-2.91-10.11-.19-3.95.36-8.3 1.68-13 1.32-4.7 3.14-9.37 5.43-14.02 2.29-4.64 5.05-9.05 8.26-13.22 3.21-4.16 6.65-7.7 10.32-10.58 3.67-2.89 7.49-4.96 11.46-6.22 3.97-1.26 7.92-1.32 11.76-.16 1.82.56 3.26 1.38 4.27 2.44 1.02 1.06 1.76 2.19 2.21 3.4.46 1.21.71 2.4.76 3.57.05 1.17.02 2.16-.08 2.96-.51 4.42-2.24 8.64-5.19 12.68A44.172 44.172 0 0 1 381 93.22c-4.02 2.82-8.15 4.83-12.37 6.05-4.23 1.22-7.82 1.14-10.77-.27-2.14 5.65-3.36 10.49-3.52 14.39-.14 3.5.56 5.89 1.99 7.04 1.43 1.15 3.31 1.4 5.66.74 2.34-.66 5.07-2.09 8.18-4.3a83.04 83.04 0 0 0 9.55-7.94c2.95-2.85 6.01-6.4 9.16-10.49 3.15-4.08 6.36-8.1 9.61-12.05 0 .1.1.49.31 1.17.2.68.31 1.53.31 2.54s-.2 2.16-.61 3.44c-.41 1.28-1.22 2.62-2.44 4.03-3.15 3.86-6.13 7.32-8.93 10.38-2.8 3.05-5.55 5.84-8.25 8.37-2.7 2.52-5.4 4.78-8.1 6.76a78.68 78.68 0 0 1-8.48 5.42Zm20.93-65.84c-1.83.56-3.79 1.84-5.88 3.86-2.09 2.02-4.18 4.5-6.26 7.44-2.09 2.94-4.1 6.15-6.04 9.61-1.94 3.47-3.67 6.98-5.2 10.53 2.65-.84 5.43-2.25 8.33-4.23a62.39 62.39 0 0 0 8.17-6.62c2.54-2.44 4.73-5 6.57-7.69 1.83-2.69 2.95-5.23 3.36-7.63.1-.6.2-1.25.31-1.95.1-.7.08-1.36-.08-1.98-.15-.62-.48-1.08-.99-1.38-.51-.3-1.27-.28-2.29.03Z"/>
        <path class="cls-3" d="M418.45 69.63c.73-.65 1.1-.97 1.83-1.62 2.54-2.04 5.15-3.54 7.84-4.48 2.69-.94 5.41-1.4 7.99-1.22 2.69.19 4.64 1.49 5.7 3.71 1.07 2.22 1.5 5.07 1.29 8.54-.2 3.47-.96 7.4-2.28 11.8-1.32 4.39-3.02 8.81-5.1 13.27-2.08 4.45-4.44 8.8-7.08 13.05-2.64 4.25-5.38 7.98-8.22 11.21-2.84 3.23-5.74 5.77-8.69 7.64-2.95 1.87-5.75 2.62-8.39 2.25-2.33-.33-4.12-1.57-5.34-3.72-1.22-2.14-1.98-4.55-2.29-7.22-4.18 9.77-8.35 19.55-12.52 29.32-1.42 3.63-2.72 6.52-3.89 8.66-1.17 2.14-2.32 3.72-3.44 4.75-1.12 1.03-2.24 1.68-3.36 1.95-1.12.27-2.38.39-3.67.26-1.69-.17-2.9-1.14-3.51-2.76-.61-1.62-.29-3.88.76-6.72.94-2.52 2.37-6.28 4.35-11.1 1.99-4.83 4.25-10.24 6.8-16.22 2.67-6.29 5.4-12.56 8.17-18.81 2.81-6.35 5.66-12.7 8.55-19.02 2.8-6.13 5.42-11.74 7.86-16.82 2.44-5.08 4.47-9.16 6.1-12.24 1.02-1.82 2.31-3.01 3.89-3.55 1.57-.54 3.1-.71 4.57-.49 1.47.21 2.69.71 3.66 1.48.96.77 1.3 1.49.99 2.17-1.04 2.38-1.55 3.57-2.59 5.94Zm8.68.4c-.49-.07-.89-.08-1.14-.06-.25.02-.46.1-.61.23s-.33.29-.53.47-.56.44-1.07.79c-.81.51-1.55 1.22-2.21 2.1-.66.89-1.17 1.9-1.52 3.02-.36 1.13-.43 2.23-.23 3.32.2 1.09.76 2.04 1.68 2.85-2.34.44-4.06.4-5.18-.13s-1.93-1.33-2.44-2.4c-4.02 9.37-8.03 18.74-12.05 28.12-.71 1.96-1.27 3.78-1.68 5.47-.41 1.69-.61 3.14-.61 4.35s.2 2.2.61 2.95 1.08 1.11 1.98 1.11c1.2 0 2.92-1.2 5.11-3.67 2.19-2.46 4.47-5.59 6.86-9.39 2.39-3.8 4.72-7.9 7.01-12.3 2.28-4.4 4.14-8.55 5.56-12.44 1.42-3.89 2.26-7.19 2.51-9.89.25-2.71-.48-4.27-2.06-4.51ZM467.57 76.15c.73-.62 1.09-.93 1.82-1.55 2.53-1.94 5.13-3.33 7.81-4.17 2.68-.84 5.39-1.18 7.96-.9 2.68.3 4.62 1.67 5.68 3.93 1.06 2.26 1.49 5.13 1.29 8.59-.2 3.46-.96 7.37-2.27 11.7-1.31 4.34-3 8.69-5.07 13.06-2.07 4.37-4.42 8.62-7.05 12.76-2.63 4.14-5.36 7.76-8.19 10.88-2.83 3.11-5.72 5.54-8.65 7.29-2.94 1.75-5.73 2.39-8.36 1.91-2.33-.42-4.1-1.74-5.32-3.93-1.22-2.19-1.98-4.63-2.28-7.31-4.16 9.6-8.32 19.21-12.48 28.82-1.42 3.58-2.71 6.41-3.88 8.5s-2.31 3.63-3.43 4.61c-1.12.98-2.23 1.59-3.35 1.82-1.12.23-2.38.3-3.66.12-1.68-.24-2.9-1.26-3.5-2.9-.61-1.64-.29-3.9.76-6.69.94-2.48 2.36-6.18 4.34-10.93s4.24-10.07 6.78-15.95c2.54-5.88 5.26-12.05 8.14-18.48 2.8-6.24 5.64-12.47 8.52-18.68 2.79-6.02 5.4-11.52 7.83-16.51 2.43-4.99 4.46-8.98 6.08-12 1.01-1.78 2.3-2.91 3.87-3.39 1.57-.48 3.09-.58 4.55-.31 1.46.27 2.68.81 3.64 1.62s1.29 1.55.99 2.21c-1.03 2.33-1.55 3.5-2.58 5.84Zm8.65.75a5.58 5.58 0 0 0-1.14-.11c-.25.01-.46.08-.61.21s-.33.28-.53.45c-.2.17-.56.42-1.06.75-.81.48-1.54 1.15-2.2 2.01-.66.86-1.16 1.85-1.52 2.96-.35 1.11-.43 2.22-.23 3.31.2 1.09.76 2.07 1.67 2.92-2.33.35-4.05.24-5.16-.34-1.11-.57-1.92-1.4-2.43-2.5-4.01 9.21-8.01 18.42-12 27.63-.71 1.93-1.27 3.73-1.67 5.4-.41 1.67-.61 3.11-.61 4.33s.2 2.21.61 2.97c.4.76 1.08 1.15 1.98 1.19 1.2.05 2.91-1.09 5.09-3.46 2.18-2.37 4.46-5.41 6.83-9.12 2.38-3.7 4.71-7.71 6.98-12.02 2.27-4.31 4.12-8.38 5.54-12.21 1.41-3.83 2.25-7.09 2.5-9.79.25-2.7-.47-4.29-2.05-4.59ZM541.03 88.63c-.27 3.36-1.76 6.11-4.37 8.2 1.91.91 2.71 1.74 2.41 2.49-2.31 5.8-4.74 11.29-7.3 16.49-2.56 5.2-4.95 10.52-7.16 15.96-1.21 3-1.78 4.97-1.73 5.89.05.92.55 1.1 1.51.53.95-.57 2.31-1.76 4.07-3.59 1.76-1.82 3.77-4.02 6.03-6.59 2.26-2.57 4.67-5.38 7.23-8.43 2.56-3.05 5.14-6.06 7.75-9.03.1.23.23.69.38 1.38s.2 1.52.15 2.47c-.05.95-.28 2.05-.68 3.27-.4 1.23-1.15 2.43-2.26 3.61-3.11 3.47-5.84 6.51-8.2 9.1-2.36 2.59-4.57 4.94-6.63 7.05a81.202 81.202 0 0 1-6.25 5.79c-2.11 1.75-4.48 3.49-7.09 5.2-1.41.94-2.87 1.44-4.38 1.51-1.51.06-2.85-.19-4-.77a6.96 6.96 0 0 1-2.8-2.5c-.7-1.09-1.02-2.36-.91-3.75.09-1.09.3-2.35.6-3.77.3-1.41.7-2.94 1.21-4.57-1.61 1.52-3.3 2.99-5.06 4.39-1.76 1.4-3.5 2.61-5.22 3.62-1.72 1.01-3.38 1.78-4.99 2.31-1.61.53-3.03.69-4.24.48-2.42-.42-4.24-1.46-5.45-3.13s-1.75-3.73-1.67-6.13c.13-3.81.83-8.05 2.2-12.64 1.36-4.59 3.21-9.2 5.53-13.82 2.32-4.62 5.05-9.04 8.17-13.25 3.12-4.21 6.5-7.83 10.13-10.85 3.63-3.02 7.4-5.27 11.33-6.72 3.92-1.46 7.87-1.75 11.76-.82 2.7.64 5.1 1.9 7.15 3.71 2.06 1.81 3.01 4.14 2.78 6.91Zm-21.55 7.72c3.02-.22 5.56-1.05 7.62-2.51 2.06-1.46 3.54-3.36 4.45-5.7.4-1.03.35-2.19-.15-3.45-.5-1.27-1.77-1.7-3.77-1.31-1.8.35-3.75 1.57-5.81 3.7-2.06 2.13-4.18 4.75-6.34 7.88-2.17 3.13-4.28 6.56-6.34 10.28-2.06 3.72-3.9 7.39-5.52 10.99-1.61 3.61-2.95 6.94-4.01 10-1.06 3.06-1.66 5.51-1.89 7.27-.18 1.36.2 2.01 1.21 1.89 1.01-.12 2.24-.66 3.71-1.61 1.46-.95 3.05-2.2 4.76-3.76 1.71-1.56 3.22-3.07 4.53-4.55 1.71-4.44 3.65-8.89 5.81-13.33 2.16-4.44 4.15-8.56 5.96-12.36-2.21-.65-3.62-1.79-4.22-3.43Z"/>
    </g>
</svg>
